<svg width="45" height="45" viewBox="0 0 45 45" fill="none" xmlns="http://www.w3.org/2000/svg">
<path d="M37.607 35.8393V23.4715C37.6071 22.611 37.4315 21.7596 37.091 20.9694C36.7505 20.1791 36.2523 19.4668 35.6268 18.8758L23.9749 7.86395C23.388 7.30914 22.6111 7 21.8035 7C20.9959 7 20.2189 7.30914 19.6321 7.86395L7.98018 18.8758C7.35471 19.4668 6.85647 20.1791 6.51598 20.9694C6.17549 21.7596 5.99991 22.611 6 23.4715V35.8393C6 36.6776 6.333 37.4815 6.92575 38.0743C7.51849 38.667 8.32243 39 9.1607 39H34.4463C35.2846 39 36.0885 38.667 36.6812 38.0743C37.274 37.4815 37.607 36.6776 37.607 35.8393Z" stroke="white" stroke-width="2.66667" stroke-linecap="round" stroke-linejoin="round"/>
</svg>
