<svg width="45" height="45" viewBox="0 0 45 45" fill="none" xmlns="http://www.w3.org/2000/svg">
<path d="M32.1667 16.6017C32.1667 14.0552 31.1482 11.6129 29.3354 9.81227C27.5225 8.0116 25.0638 7 22.5 7C19.9362 7 17.4775 8.0116 15.6646 9.81227C13.8518 11.6129 12.8333 14.0552 12.8333 16.6017C12.8333 27.8037 8 31.0043 8 31.0043H37C37 31.0043 32.1667 27.8037 32.1667 16.6017Z" stroke="white" stroke-width="2.67" stroke-linecap="round" stroke-linejoin="round"/>
<path d="M25.2873 37.4054C25.0041 37.8904 24.5975 38.293 24.1084 38.5729C23.6192 38.8527 23.0646 39 22.5001 39C21.9356 39 21.381 38.8527 20.8919 38.5729C20.4027 38.293 19.9961 37.8904 19.7129 37.4054" stroke="white" stroke-width="2.67" stroke-linecap="round" stroke-linejoin="round"/>
</svg>
