<svg width="45" height="45" viewBox="0 0 45 45" fill="none" xmlns="http://www.w3.org/2000/svg">
<mask id="path-1-inside-1_1415_4031" fill="white">
<path d="M22.4287 9.28571C23.5589 9.28571 24.6637 9.62085 25.6034 10.2487C26.5431 10.8766 27.2755 11.7691 27.708 12.8132C28.1405 13.8574 28.2537 15.0063 28.0332 16.1148C27.8127 17.2233 27.2685 18.2415 26.4693 19.0406C25.6702 19.8398 24.652 20.384 23.5435 20.6045C22.4351 20.825 21.2861 20.7118 20.242 20.2793C19.1978 19.8468 18.3054 19.1144 17.6775 18.1747C17.0496 17.235 16.7144 16.1302 16.7144 15C16.7144 13.4845 17.3165 12.031 18.3881 10.9594C19.4597 9.88775 20.9132 9.28571 22.4287 9.28571V9.28571ZM22.4287 7C20.8465 7 19.2997 7.46919 17.9842 8.34824C16.6686 9.22729 15.6432 10.4767 15.0377 11.9385C14.4322 13.4003 14.2738 15.0089 14.5824 16.5607C14.8911 18.1126 15.653 19.538 16.7719 20.6569C17.8907 21.7757 19.3161 22.5376 20.868 22.8463C22.4198 23.155 24.0284 22.9965 25.4902 22.391C26.952 21.7855 28.2014 20.7602 29.0805 19.4446C29.9595 18.129 30.4287 16.5823 30.4287 15C30.4287 12.8783 29.5859 10.8434 28.0856 9.34315C26.5853 7.84285 24.5504 7 22.4287 7V7Z"/>
</mask>
<path d="M16.7144 15L12.7144 15L16.7144 15ZM22.4287 13.2857C22.7678 13.2857 23.0992 13.3863 23.3811 13.5746L27.8257 6.92287C26.2282 5.85545 24.35 5.28571 22.4287 5.28571L22.4287 13.2857ZM23.3811 13.5746C23.663 13.763 23.8828 14.0307 24.0125 14.344L31.4035 11.2825C30.6683 9.50745 29.4232 7.99029 27.8257 6.92287L23.3811 13.5746ZM24.0125 14.344C24.1423 14.6572 24.1762 15.0019 24.1101 15.3344L31.9563 16.8952C32.3312 15.0108 32.1388 13.0576 31.4035 11.2825L24.0125 14.344ZM24.1101 15.3344C24.0439 15.667 23.8806 15.9724 23.6409 16.2122L29.2978 21.869C30.6563 20.5105 31.5815 18.7796 31.9563 16.8952L24.1101 15.3344ZM23.6409 16.2122C23.4011 16.4519 23.0957 16.6152 22.7632 16.6813L24.3239 24.5276C26.2083 24.1528 27.9392 23.2276 29.2978 21.869L23.6409 16.2122ZM22.7632 16.6813C22.4306 16.7475 22.0859 16.7135 21.7727 16.5838L18.7112 23.9748C20.4863 24.7101 22.4395 24.9025 24.3239 24.5276L22.7632 16.6813ZM21.7727 16.5838C21.4594 16.454 21.1917 16.2343 21.0033 15.9524L14.3516 20.397C15.419 21.9945 16.9362 23.2396 18.7112 23.9748L21.7727 16.5838ZM21.0033 15.9524C20.815 15.6705 20.7144 15.3391 20.7144 15L12.7144 15C12.7144 16.9213 13.2842 18.7995 14.3516 20.397L21.0033 15.9524ZM20.7144 15C20.7144 14.5453 20.895 14.1093 21.2165 13.7878L15.5597 8.13096C13.7379 9.95274 12.7144 12.4236 12.7144 15H20.7144ZM21.2165 13.7878C21.538 13.4663 21.9741 13.2857 22.4287 13.2857V5.28571C19.8523 5.28571 17.3815 6.30918 15.5597 8.13096L21.2165 13.7878ZM22.4287 3C20.0553 3 17.7353 3.70379 15.7619 5.02236L20.2064 11.6741C20.8642 11.2346 21.6376 11 22.4287 11L22.4287 3ZM15.7619 5.02236C13.7885 6.34094 12.2504 8.21509 11.3422 10.4078L18.7332 13.4693C19.0359 12.7384 19.5486 12.1136 20.2064 11.6741L15.7619 5.02236ZM11.3422 10.4078C10.4339 12.6005 10.1963 15.0133 10.6593 17.3411L18.5056 15.7804C18.3512 15.0044 18.4304 14.2002 18.7332 13.4693L11.3422 10.4078ZM10.6593 17.3411C11.1223 19.6689 12.2652 21.8071 13.9434 23.4853L19.6003 17.8284C19.0409 17.269 18.6599 16.5563 18.5056 15.7804L10.6593 17.3411ZM13.9434 23.4853C15.6217 25.1635 17.7599 26.3064 20.0876 26.7694L21.6484 18.9231C20.8724 18.7688 20.1597 18.3878 19.6003 17.8284L13.9434 23.4853ZM20.0876 26.7694C22.4154 27.2324 24.8282 26.9948 27.0209 26.0866L23.9594 18.6955C23.2285 18.9983 22.4243 19.0775 21.6484 18.9231L20.0876 26.7694ZM27.0209 26.0866C29.2136 25.1783 31.0878 23.6402 32.4064 21.6668L25.7546 17.2223C25.3151 17.8801 24.6904 18.3928 23.9594 18.6955L27.0209 26.0866ZM32.4064 21.6668C33.7249 19.6935 34.4287 17.3734 34.4287 15H26.4287C26.4287 15.7911 26.1941 16.5645 25.7546 17.2223L32.4064 21.6668ZM34.4287 15C34.4287 11.8174 33.1644 8.76515 30.914 6.51472L25.2571 12.1716C26.0073 12.9217 26.4287 13.9391 26.4287 15H34.4287ZM30.914 6.51472C28.6636 4.26428 25.6113 3 22.4287 3L22.4287 11C23.4896 11 24.507 11.4214 25.2571 12.1716L30.914 6.51472Z" fill="white" mask="url(#path-1-inside-1_1415_4031)"/>
<mask id="path-3-inside-2_1415_4031" fill="white">
<path d="M33.8571 39.0001H31.5714V33.2858C31.5714 31.7702 30.9694 30.3168 29.8978 29.2452C28.8261 28.1735 27.3727 27.5715 25.8571 27.5715H19C17.4845 27.5715 16.031 28.1735 14.9594 29.2452C13.8878 30.3168 13.2857 31.7702 13.2857 33.2858V39.0001H11V33.2858C11 31.164 11.8429 29.1292 13.3431 27.6289C14.8434 26.1286 16.8783 25.2858 19 25.2858H25.8571C27.9789 25.2858 30.0137 26.1286 31.514 27.6289C33.0143 29.1292 33.8571 31.164 33.8571 33.2858V39.0001Z"/>
</mask>
<path d="M33.8571 39.0001V48.0001H42.8571V39.0001H33.8571ZM31.5714 39.0001H22.5714V48.0001H31.5714V39.0001ZM13.2857 33.2858H4.28571H13.2857ZM13.2857 39.0001V48.0001H22.2857V39.0001H13.2857ZM11 39.0001H2V48.0001H11V39.0001ZM19 25.2858L19 16.2858L19 25.2858ZM33.8571 30.0001H31.5714V48.0001H33.8571V30.0001ZM40.5714 39.0001V33.2858H22.5714V39.0001H40.5714ZM40.5714 33.2858C40.5714 29.3833 39.0212 25.6407 36.2617 22.8812L23.5338 35.6091C22.9176 34.9929 22.5714 34.1572 22.5714 33.2858H40.5714ZM36.2617 22.8812C33.5022 20.1217 29.7596 18.5715 25.8571 18.5715V36.5715C24.9857 36.5715 24.15 36.2253 23.5338 35.6091L36.2617 22.8812ZM25.8571 18.5715H19V36.5715H25.8571V18.5715ZM19 18.5715C15.0975 18.5715 11.3549 20.1217 8.59543 22.8812L21.3234 35.6091C20.7072 36.2253 19.8714 36.5715 19 36.5715V18.5715ZM8.59543 22.8812C5.83596 25.6407 4.28571 29.3833 4.28571 33.2858H22.2857C22.2857 34.1572 21.9395 34.9929 21.3234 35.6091L8.59543 22.8812ZM4.28571 33.2858V39.0001H22.2857V33.2858H4.28571ZM13.2857 30.0001H11V48.0001H13.2857V30.0001ZM20 39.0001V33.2858H2V39.0001H20ZM20 33.2858C20 33.551 19.8946 33.8053 19.7071 33.9929L6.97918 21.265C3.79107 24.4531 2 28.7771 2 33.2858H20ZM19.7071 33.9929C19.5196 34.1804 19.2652 34.2858 19 34.2858L19 16.2858C14.4913 16.2858 10.1673 18.0768 6.97918 21.265L19.7071 33.9929ZM19 34.2858H25.8571V16.2858H19V34.2858ZM25.8571 34.2858C25.5919 34.2858 25.3376 34.1804 25.15 33.9929L37.878 21.265C34.6898 18.0768 30.3658 16.2858 25.8571 16.2858V34.2858ZM25.15 33.9929C24.9625 33.8053 24.8571 33.551 24.8571 33.2858H42.8571C42.8571 28.7771 41.0661 24.4531 37.878 21.265L25.15 33.9929ZM24.8571 33.2858V39.0001H42.8571V33.2858H24.8571Z" fill="white" mask="url(#path-3-inside-2_1415_4031)"/>
</svg>
