<svg width="45" height="45" viewBox="0 0 45 45" fill="none" xmlns="http://www.w3.org/2000/svg">
<path d="M17.7511 30.5023C20.7107 30.5023 23.4085 29.3943 25.4783 27.5829L27.7228 32.2834C27.7228 32.2834 28.1845 32.6594 28.819 33.2839C29.4687 33.8933 30.3232 34.7176 31.1424 35.5787L33.4221 37.9155L34.4361 39L37.9966 35.4394L36.9122 34.4255L34.5754 32.1457C33.7891 31.3926 33.0239 30.6179 32.2806 29.8224C31.6561 29.1878 31.28 28.7262 31.28 28.7262L26.5796 26.4817C28.4621 24.3464 29.5013 21.5978 29.5023 18.7511C29.5023 12.2729 24.2294 7 17.7511 7C11.2729 7 6 12.2729 6 18.7511C6 25.2294 11.2729 30.5023 17.7511 30.5023Z" stroke="white" stroke-width="2"/>
</svg>
