<svg width="45" height="45" viewBox="0 0 45 45" fill="none" xmlns="http://www.w3.org/2000/svg">
<path d="M11.1833 9.33561C11.1833 9.68093 11.1833 9.99954 11.1833 10.3182C11.2092 11.716 12.3007 12.6801 13.8544 12.7188C15.6013 12.7612 16.5858 11.5917 16.6803 10.3937C16.7551 9.46913 17.83 8.96082 18.7013 9.48939C18.9267 9.62752 19.0669 9.91022 19.1749 10.1524C19.2673 10.3596 19.2258 10.6128 19.2975 10.8283C19.6142 11.7906 20.2467 12.5052 21.4203 12.67C22.5076 12.8256 23.5306 12.6249 24.1714 11.7731C24.4892 11.3504 24.6346 10.797 24.7374 10.2841C24.8714 9.61371 25.2411 9.29509 26.0792 9.31167C26.8062 9.32548 27.2216 9.68001 27.259 10.3357C27.3442 11.7289 28.5333 12.7243 30.0974 12.7096C31.6199 12.6949 32.7831 11.6718 32.8391 10.2896C32.8516 9.971 32.8391 9.6533 32.8391 9.33193C34.1249 9.39639 34.9381 10.0907 34.9734 11.1598C34.9962 11.8431 34.9329 12.5282 34.9339 13.2124C34.9339 14.066 34.9775 14.9206 34.9786 15.7751C34.9827 20.477 34.9827 25.1792 34.9786 29.8816C34.9786 32.2013 34.9464 34.5218 34.9993 36.8405C35.0315 38.2421 33.9037 39.0073 32.5681 38.9999C25.5385 38.9612 18.5082 38.9612 11.4772 38.9999C9.7999 39.01 8.98464 38.0956 9.00022 36.765C9.04592 32.437 9.02514 28.0998 9.02618 23.7672C9.02618 19.5749 9.02618 15.3825 9.02618 11.1902C9.0293 10.0889 9.81341 9.38902 11.1833 9.33561ZM22.0257 29.6026C22.1556 29.8015 22.2397 29.9295 22.3217 30.0575C22.6458 30.5603 22.9511 31.0705 23.2969 31.5631C23.6916 32.1212 24.1132 32.6681 24.5432 33.2041C24.7375 33.4719 24.9707 33.7159 25.2369 33.9297C25.7489 34.298 26.4458 34.2336 26.9267 33.8192C27.4459 33.3689 27.5363 32.8201 27.1167 32.2878C26.0013 30.8722 24.8745 29.4642 23.7362 28.0639C23.5628 27.8502 23.5285 27.6955 23.7155 27.4663C24.3126 26.736 24.888 25.9929 25.453 25.2433C25.5425 25.1056 25.6732 24.9924 25.8305 24.9162C25.9879 24.84 26.166 24.8037 26.3451 24.8114C27.3639 24.805 28.2757 24.5186 28.9622 23.816C29.333 23.4366 29.6653 23.0277 30.008 22.6263C30.7558 21.7508 31.5001 20.8723 32.2409 19.9908C32.4206 19.7753 32.3998 19.569 32.1433 19.3931C31.8868 19.2173 31.6645 19.209 31.4631 19.4254C31.2616 19.6418 31.0757 19.8941 30.8804 20.128C30.3175 20.8048 29.765 21.489 29.1772 22.1493C29.0796 22.2607 28.8314 22.2671 28.6527 22.3215C28.6527 22.1575 28.5935 21.9531 28.6787 21.8371C29.0183 21.3601 29.3974 20.9079 29.7733 20.4475C30.1316 20.0175 30.519 19.6049 30.868 19.1694C31.0528 18.9392 31.0923 18.6804 30.788 18.4824C30.4837 18.2844 30.2417 18.4069 30.0465 18.6454C30.006 18.6951 29.9696 18.7467 29.9291 18.7964C29.2395 19.6381 28.5624 20.488 27.852 21.3131C27.7482 21.4384 27.4657 21.4466 27.2663 21.5093C27.2767 21.3306 27.2548 21.1455 27.3068 20.9779C27.3452 20.8536 27.4792 20.7523 27.5706 20.6418C28.2228 19.8527 28.8708 19.0607 29.5303 18.2771C29.7152 18.0561 29.7474 17.8609 29.4929 17.6794C29.2541 17.5091 29.01 17.5054 28.8179 17.7356C28.0805 18.6196 27.3504 19.5092 26.6172 20.395C26.4635 20.5792 26.3056 20.8159 25.9992 20.6326C25.6929 20.4494 25.8715 20.2597 26.0377 20.0617C26.7591 19.2022 27.4723 18.3391 28.1771 17.4723C28.4689 17.1113 28.3941 16.8525 27.9953 16.6932C27.6578 16.5588 27.4823 16.7503 27.313 16.9547C26.4759 17.9677 25.6513 18.9806 24.7997 19.9834C23.9481 20.9862 23.5244 22.0618 23.9896 23.3243C24.0254 23.4298 24.0366 23.5407 24.0227 23.6502C24.0088 23.7598 23.97 23.8656 23.9086 23.9615C23.3478 24.6567 22.734 25.3188 22.1047 26.0334C21.7557 25.6117 21.439 25.1927 21.0807 24.8059C20.6372 24.328 20.2706 23.8611 20.8044 23.2552C20.8241 23.2331 20.82 23.1963 20.8293 23.1631C21.5335 20.7836 19.5072 17.813 16.7592 17.1951C14.9085 16.7789 13.3767 17.5634 13.0578 19.2209C12.6808 21.1842 13.4888 22.8113 15.2014 24.0637C16.1361 24.747 17.1996 25.1789 18.4687 25.0555C18.5902 25.0435 18.7803 25.1678 18.8582 25.2746C19.4553 26.0776 20.0338 26.8916 20.6143 27.6965C20.254 28.1265 19.9237 28.5363 19.5758 28.9332C18.5944 30.0511 17.5922 31.1552 16.6232 32.2814C16.1745 32.8035 16.2825 33.4002 16.8309 33.8468C17.3419 34.2566 18.1187 34.3174 18.5601 33.88C19.1261 33.3192 19.609 32.6893 20.1034 32.0733C20.7431 31.2767 21.3548 30.4682 22.0257 29.6026Z" fill="#F0BC00"/>
<path d="M31.1929 9.20392C31.1929 9.55661 31.2044 9.90929 31.1929 10.2611C31.168 10.8679 30.7038 11.3044 30.0817 11.3219C29.7667 11.3307 29.4603 11.2295 29.2286 11.04C28.9969 10.8506 28.8583 10.5881 28.8427 10.3089C28.8084 9.56029 28.8095 8.80796 28.8427 8.05838C28.8707 7.41379 29.4056 6.98651 30.0765 7.00033C30.7277 7.01506 31.1711 7.44418 31.194 8.0989C31.2023 8.46908 31.1919 8.8365 31.1929 9.20392Z" fill="#F0BC00"/>
<path d="M15.1206 9.19742C15.1206 9.53353 15.1289 9.86964 15.1206 10.2104C15.103 10.8347 14.592 11.3154 13.9471 11.3246C13.3021 11.3338 12.7673 10.8448 12.7558 10.226C12.7434 9.52432 12.7423 8.82171 12.7558 8.1191C12.7693 7.47451 13.2751 7.01408 13.9252 7.00763C14.5754 7.00119 15.0884 7.46346 15.1175 8.09884C15.13 8.46442 15.1206 8.83184 15.1206 9.19742Z" fill="#F0BC00"/>
<path d="M20.8213 9.16338C20.8213 8.78031 20.8088 8.39723 20.8213 8.01416C20.8259 7.74377 20.9507 7.48592 21.1685 7.29661C21.3863 7.10731 21.6795 7.00182 21.9845 7.00306C22.2802 7.00461 22.5637 7.10776 22.7754 7.29083C22.9871 7.4739 23.1105 7.72262 23.1196 7.98469C23.1425 8.76557 23.1425 9.54645 23.1196 10.3273C23.1173 10.5977 22.9939 10.8562 22.7766 11.0459C22.5594 11.2356 22.266 11.341 21.9611 11.3389C21.6562 11.3368 21.3647 11.2274 21.1507 11.0348C20.9368 10.8421 20.8179 10.582 20.8203 10.3117C20.8088 9.92953 20.8213 9.54553 20.8213 9.16338Z" fill="#F0BC00"/>
</svg>
